<?xml version="1.0" encoding="utf-8"?>
<!-- Generator: Adobe Illustrator 23.0.3, SVG Export Plug-In . SVG Version: 6.00 Build 0)  -->
<svg version="1.1" xmlns="http://www.w3.org/2000/svg" xmlns:xlink="http://www.w3.org/1999/xlink" x="0px" y="0px"
	 viewBox="0 0 595.3 841.9" style="enable-background:new 0 0 595.3 841.9;" xml:space="preserve">
<style type="text/css">
	.st0{fill-rule:evenodd;clip-rule:evenodd;fill:#D63A33;}
	.st1{fill:#FFFFFF;}
	.st2{fill-rule:evenodd;clip-rule:evenodd;fill:#FFFFFF;}
	.st3{fill:#D63A33;}
	.st4{font-family:'MyriadPro-Regular';}
	.st5{font-size:75.1622px;}
	.st6{font-size:71.8039px;}
</style>
<g id="Layer_2">
	<circle class="st0" cx="297.6" cy="392.5" r="283"/>
	<g>
		<g>
			<path class="st1" d="M49.7,434.5c-2.7,0.3-5.5,0.6-8.2,0.9c-0.8-8.1-1.2-16.5-1.3-25.1c2.8,0,5.5-0.1,8.3-0.1
				C48.5,418.6,48.9,426.6,49.7,434.5z"/>
			<path class="st1" d="M53.7,462.9c-2.7,0.6-5.4,1.3-8.1,1.9c-1.5-7.6-2.7-15.4-3.6-23.4c2.7-0.4,5.5-0.8,8.2-1.1
				C51.1,448,52.3,455.5,53.7,462.9z"/>
			<path class="st1" d="M60.4,489.3c-2.6,0.9-5.3,1.9-7.9,2.8c-2.2-7.1-4.1-14.3-5.7-21.8c2.7-0.7,5.4-1.4,8.1-2.1
				C56.4,475.5,58.3,482.5,60.4,489.3z"/>
			<path class="st1" d="M69.3,513.8c-2.5,1.2-5.1,2.4-7.6,3.6c-2.8-6.5-5.4-13.3-7.7-20.2c2.6-1,5.2-2,7.8-3
				C64.2,501,66.6,507.5,69.3,513.8z"/>
			<path class="st1" d="M80.5,536.4c-2.4,1.5-4.8,2.9-7.2,4.4c-3.4-6-6.5-12.2-9.5-18.6c2.5-1.3,5-2.5,7.5-3.8
				C74.2,524.6,77.2,530.6,80.5,536.4z"/>
			<path class="st1" d="M93.7,557c-2.3,1.7-4.5,3.4-6.8,5.1c-3.9-5.4-7.6-11.1-11.1-17c2.4-1.5,4.8-3,7.2-4.5
				C86.3,546.2,89.9,551.7,93.7,557z"/>
			<path class="st1" d="M108.7,575.6c-2.1,1.9-4.2,3.8-6.3,5.7c-4.4-4.9-8.6-10-12.6-15.4c2.2-1.7,4.5-3.5,6.7-5.2
				C100.4,565.9,104.4,570.9,108.7,575.6z"/>
			<path class="st1" d="M125.3,592.3c-1.9,2.1-3.8,4.2-5.7,6.3c-4.8-4.4-9.5-8.9-14-13.7c2.1-1.9,4.1-3.9,6.2-5.8
				C116.1,583.7,120.6,588.1,125.3,592.3z"/>
			<path class="st1" d="M143.4,607.1c-1.7,2.3-3.4,4.5-5.1,6.8c-5.2-3.8-10.3-7.9-15.2-12.1c1.9-2.1,3.7-4.2,5.6-6.4
				C133.5,599.5,138.4,603.4,143.4,607.1z"/>
			<path class="st1" d="M162.8,619.9c-1.5,2.4-3,4.8-4.5,7.2c-5.5-3.3-10.9-6.8-16.2-10.5c1.7-2.3,3.3-4.6,5-6.9
				C152.2,613.4,157.4,616.8,162.8,619.9z"/>
			<path class="st1" d="M183.3,630.8c-1.3,2.5-2.5,5-3.8,7.6c-5.8-2.7-11.5-5.7-17.1-8.9c1.4-2.4,2.9-4.9,4.3-7.3
				C172.1,625.3,177.6,628.2,183.3,630.8z"/>
			<path class="st1" d="M204.7,639.8c-1,2.6-2,5.3-3.1,7.9c-6-2.2-12-4.6-17.9-7.3c1.2-2.5,2.4-5.1,3.7-7.6
				C193,635.3,198.8,637.6,204.7,639.8z"/>
			<path class="st1" d="M226.8,646.7c-0.8,2.7-1.5,5.4-2.3,8.1c-6.2-1.7-12.4-3.6-18.5-5.7c1-2.6,2-5.3,2.9-7.9
				C214.8,643.3,220.8,645.1,226.8,646.7z"/>
			<path class="st1" d="M249.5,651.8c-0.5,2.8-1,5.5-1.6,8.3c-6.4-1.1-12.7-2.5-18.9-4c0.7-2.7,1.5-5.4,2.2-8.2
				C237.2,649.4,243.3,650.7,249.5,651.8z"/>
			<path class="st1" d="M272.6,654.9c-0.3,2.8-0.5,5.6-0.8,8.4c-6.4-0.6-12.8-1.4-19.2-2.4c0.5-2.8,0.9-5.5,1.4-8.3
				C260.1,653.5,266.3,654.3,272.6,654.9z"/>
			<path class="st1" d="M295.8,656.1c0,2.8,0,5.6,0,8.4c-6.5-0.1-12.9-0.3-19.4-0.8c0.2-2.8,0.4-5.6,0.6-8.4
				C283.3,655.7,289.6,656,295.8,656.1z"/>
			<path class="st1" d="M319.1,655.3c0.3,2.8,0.5,5.6,0.8,8.4c-6.4,0.5-12.9,0.8-19.4,0.8c-0.1-2.8-0.1-5.6-0.2-8.4
				C306.6,656,312.9,655.7,319.1,655.3z"/>
			<path class="st1" d="M342.2,652.5c0.5,2.8,1.1,5.6,1.6,8.3c-6.4,1-12.8,1.8-19.2,2.4c-0.3-2.8-0.6-5.6-0.9-8.4
				C329.9,654.3,336.1,653.5,342.2,652.5z"/>
			<path class="st1" d="M365,647.9c0.8,2.7,1.6,5.5,2.3,8.2c-6.3,1.6-12.6,2.9-18.9,4c-0.6-2.8-1.2-5.5-1.7-8.3
				C352.9,650.7,359,649.4,365,647.9z"/>
			<path class="st1" d="M387.3,641.3c1,2.7,2.1,5.3,3.1,8c-6.1,2.1-12.2,4-18.5,5.7c-0.8-2.7-1.7-5.4-2.5-8.1
				C375.4,645.1,381.4,643.3,387.3,641.3z"/>
			<path class="st1" d="M408.8,632.7c1.3,2.6,2.6,5.1,3.8,7.7c-5.9,2.6-11.8,5.1-17.9,7.3c-1.1-2.6-2.2-5.3-3.2-7.9
				C397.4,637.6,403.2,635.3,408.8,632.7z"/>
			<path class="st1" d="M429.5,622.2c1.5,2.4,3,4.9,4.5,7.3c-5.6,3.2-11.3,6.1-17.1,8.9c-1.3-2.5-2.7-5.1-4-7.6
				C418.6,628.1,424.1,625.3,429.5,622.2z"/>
			<path class="st1" d="M449.1,609.7c1.7,2.3,3.5,4.6,5.2,6.9c-5.3,3.7-10.7,7.2-16.2,10.5c-1.6-2.4-3.1-4.8-4.7-7.2
				C438.8,616.7,444,613.3,449.1,609.7z"/>
			<path class="st1" d="M467.5,595.4c1.9,2.1,3.9,4.3,5.8,6.4c-4.9,4.3-10,8.3-15.2,12.1c-1.8-2.3-3.6-4.5-5.3-6.8
				C457.8,603.4,462.7,599.5,467.5,595.4z"/>
			<path class="st1" d="M484.4,579c2.1,2,4.3,3.9,6.4,5.9c-4.5,4.8-9.1,9.4-14,13.7c-2-2.1-4-4.2-5.9-6.3
				C475.5,588.1,480.1,583.7,484.4,579z"/>
			<path class="st1" d="M499.7,560.7c2.3,1.7,4.6,3.5,6.9,5.2c-4,5.3-8.2,10.5-12.6,15.4c-2.2-1.9-4.3-3.8-6.5-5.7
				C491.8,570.9,495.8,565.9,499.7,560.7z"/>
			<path class="st1" d="M513.2,540.5c2.5,1.5,4.9,3,7.4,4.6c-3.5,5.9-7.2,11.5-11.1,17c-2.3-1.7-4.7-3.4-7-5.1
				C506.3,551.7,509.9,546.2,513.2,540.5z"/>
			<path class="st1" d="M524.8,518.4c2.6,1.3,5.2,2.5,7.8,3.8c-2.9,6.4-6.1,12.6-9.5,18.6c-2.5-1.5-5-2.9-7.5-4.4
				C518.9,530.6,522,524.6,524.8,518.4z"/>
			<path class="st1" d="M534.2,494.2c2.7,1,5.4,2,8.1,3c-2.3,7-4.9,13.7-7.7,20.2c-2.6-1.2-5.2-2.4-7.9-3.7
				C529.5,507.5,532,501,534.2,494.2z"/>
			<path class="st1" d="M541.3,468.2c2.8,0.7,5.6,1.4,8.4,2.1c-1.6,7.5-3.5,14.8-5.7,21.8c-2.7-0.9-5.5-1.9-8.2-2.8
				C537.9,482.5,539.7,475.4,541.3,468.2z"/>
			<path class="st1" d="M545.9,440.2c2.8,0.4,5.7,0.8,8.5,1.2c-0.9,8-2.1,15.8-3.6,23.4c-2.8-0.6-5.6-1.3-8.4-1.9
				C543.8,455.5,545,448,545.9,440.2z"/>
			<path class="st1" d="M547.8,410.3c2.9,0,5.7,0.1,8.6,0.1c-0.1,8.6-0.6,16.9-1.4,25.1c-2.9-0.3-5.7-0.6-8.6-1
				C547.2,426.6,547.6,418.5,547.8,410.3z"/>
		</g>
	</g>
</g>
<g id="Layer_1">
	<path class="st2" d="M125.5,201.3c0,0.9,0.6,1.4,1,2.1c16.9,26.3,33.8,52.7,50.7,79c0.2,0.4,0.5,0.9,0.8,1.3c0.8,0.8,2,0.8,2.8,0.1
		c0.1-0.1,0.2-0.2,0.3-0.3c3.6-6.8,7.9-13.3,11.3-20.3c0.3-0.5,0.5-1,0.7-1.6c3.2-8.5,8.2-16.1,12.5-24c0.4-0.7,0.8-1.1,1.7-0.6
		c6.6,3.2,13.2,6.4,19.8,9.6c1.2,0.6,0.9,1.2,0.4,2c-2.5,4.5-5.4,8.8-8.3,13.1c-7.1,10.8-12.5,22.6-15.9,35.1
		c-1.8,7.1-2.8,14.4-2.8,21.7c-0.2,5.3,0,10.6,0.6,15.9c1,6.7,2.7,13.2,5.1,19.5c2.4,6.7,5.6,13.1,9.5,19c2.1,3.2,4.1,6.5,6,10
		c0.8-0.5,1.6-1.2,2-2c6.1-7.9,11.9-16,17.7-24.1c9.3-13,19.4-25.3,30.3-36.9c12.6-13.1,24.6-26.7,37.3-39.7c3.5-3.5,7-7,10.6-10.4
		c1.8-1.9,4.6-2.5,7.1-1.5c2.5,0.8,5,1.9,7.3,3.2c10.6,6.1,19.9,14,27.5,23.6c1.1,1.5,2.2,3,3.1,4.6c1.7,2.8,2.6,6.1,2.6,9.4
		c-0.1,12.8,0,25.6,0,38.3c0,9.1,0.8,18.2,1.5,27.3c0.3,3.4,0.4,6.9,0.6,10.3c0.1,1.4,0.2,2.7,0.3,4.1c0.2,0,0.5,0,0.7-0.1
		c15.4-8.4,28.3-19.5,37.7-34.5c5.8-9.2,9.5-19.6,10.8-30.4c1.5-13.4,0.1-26.9-4.1-39.7c-1.2-3.9-2.3-7.7-3.4-11.5
		c-0.2-0.6-0.2-1.1-0.4-1.7c-0.3-1,0.2-1.3,1.1-1.2h22.8c1.8,0,1.9,0,2.3,1.7c2.1,8.9,3.8,17.8,5,26.8c0.9,7,1.9,14.1,4.6,20.7
		c0.5,1.3,0.5,1.4,1.8,0.9c2.4-1,4.7-2.2,6.9-3.6c8-4.7,15.6-10,23.6-14.6c13.1-7.6,25.8-15.8,39-23.2c3.9-2.1,2.9-2.3,6.4,0.7
		c2.8,2.4,5.5,5.1,8.1,7.7c0.5,0.5,1.1,1,1.3,1.7c-4.6,2.8-9.2,5.6-13.7,8.4c-6.1,3.8-12.2,7.5-18.1,11.6l-0.9,0.6
		c-2,1.4-2.1,1.7-0.6,3.7c1.6,2.2,3.4,4.2,5.4,6.1c1.3,1.3,1.3,1.3,3.1,0.3l31-17.3l0.6-0.3c2.3-1.3,1.9-1.4,3,0.9
		c1.8,3.7,3.6,7.3,5.4,11c0.9,1.9,1.1,1.7-0.9,2.6l-33.4,14.9c-2.4,1.1-2.4,1.1-1.4,3.5c1,2.4,1.9,4.9,3,7.4c0.8,1.9,0.6,1.6,2.3,1
		c11.4-4.2,22.8-8.3,34.1-12.5l1.7-0.6c0.4,1.4,0.6,2.8,0.7,4.2c0.5,3.6,1,7.2,1.5,10.9c0.2,1.7,0.3,1.7-1.4,2.2l-29.5,8.5l-4.8,1.4
		c-0.6,0.2-1.1,0.5-1.1,1.3c0,3.4-0.1,6.8,1,10.1l37.6-7c0.2,1.4,0.3,2.8,0.2,4.3c0,3.6,0,7.2,0,10.8c0,1-0.2,1.5-1.4,1.6
		c-13.9,1.3-27.5,4.3-40.9,7.9c-17.4,4.7-34.4,10.6-51.4,16.4c-17,5.8-33.6,12.5-49.8,20.3c-11.2,5.4-22.4,10.6-33.4,16.4
		c-1.7,0.9-3.5,1.7-5.3,2.4c-0.8,0.2-1.3,0.9-1.2,1.7c0.1,3.2,0.5,6.3,1.1,9.4c2.9,15.3,5.7,30.7,9.4,45.9
		c5.4,22.5,12.2,44.7,20.4,66.3c3,7.7,6.4,15.4,9.5,23.1c1.2,2.8,2.2,5.7,2.8,8.7c-0.6,0.6-1.2,0.4-1.7,0.3
		c-22.9-0.3-45.8-0.6-68.7-0.8c-13.5-0.1-27-0.1-40.5-0.1c-0.6,0-1.2,0-1.7,0s-1-0.3-1.2-1c-1.6-7-3.4-13.9-4.3-21.1
		c-0.7-5.3-0.8-10.7-1-16.1c-0.1-4.6,0.1-9.2,0.6-13.7c0.1-1.7,0.1-1.7-1.5-1.7c-12.6-0.4-25.3-0.6-37.9-0.9
		c-5.5-0.1-11.1-0.1-16.6-0.2c-1.8-0.2-3.4,0.9-4,2.6c-1.2,3-2,6.1-2.5,9.3c-1.4,8.2-1.9,16.6-1.6,24.9c0,3.4,0.9,6.8,1.4,10.2
		c0.4,2.5,0.7,4.9,1.1,7.4c-0.7,0.3-1.5,0.4-2.2,0.3h-95.4c-1.9,0-1.9,0-1.7-1.9c1.1-8.7,2.6-17.4,4.6-26
		c5.8-26.6,13.7-52.6,22.6-78.2c5.7-16.3,13.2-31.8,21-47.2c2.6-5.1,5.2-10.1,7.8-15.1c0.6-0.9,0.5-2.1-0.3-2.8
		c-4.8-5.4-9.6-10.7-14.5-15.9c-8.4-8.7-16.7-17.6-25.7-25.7c-5.4-4.8-10.8-9.4-16.3-14.1c-3.5-3-7.1-6.1-10.4-9.3
		c-8.3-8-17.6-14.5-26.9-21.1c-13.8-9.8-28.4-18.4-42.7-27.5c-4.2-2.6-8.4-5.3-12.5-8c-1.8-1.2-1.7-1.2-1.3-3.5
		c1.1-6.2,3.9-11.8,5.7-17.8c0.8,0.2,1.6,0.6,2.2,1.1l35.5,22.4c0.5,0.3,1,0.6,1.4,1c0.5,0.4,0.9,0.2,1.2-0.3c1.6-2.6,3-5.4,4-8.3
		c0.4-1,0-2.2-0.8-2.9c-1.7-1.8-3.5-3.4-5.4-4.9c-7.3-5.7-14.6-11.4-21.9-17.1c-2.7-2-5.3-4.2-7.7-6.6c-1.3-1.3-1.3-1.3-0.5-2.9
		c2.8-5.4,5.6-10.8,8.4-16.2c0.2-0.7,0.7-1.3,1.3-1.7l35.7,34.7c0.7-0.2,1-0.7,1.3-1.1c2-2.6,4.1-5.2,6.1-7.8
		c1.1-1.5,1.4-1.2-0.1-2.8l-13.3-14.7c-5.8-6.4-11.7-12.9-17.6-19.2c-0.9-0.8-1.2-2.2-0.7-3.3c0.5-1.4,1.3-2.6,2.3-3.6
		c0.9-0.9,1.9-1.8,2.8-2.6c2.6-2.2,5.5-4.1,7.4-7.5c6.1,6.3,11.1,13.2,16.2,20.1c5.2,6.7,10.1,13.8,14.5,21.1c0.6,0,1.1-0.3,1.6-0.7
		c3.2-1.9,6.4-3.8,9.7-5.7c1.4-0.8,1.4-0.9,0.5-2.2c-4-6.1-8-12.1-12-18.2l-14.6-22.1c-0.4-0.7-0.9-1.3-1.2-1.9
		c0.2-0.7,0.7-0.7,1.2-0.9c5-1.7,10.1-3.4,15.1-5.1c0.7-0.1,1.4-0.4,1.9-0.9L125.5,201.3z M242.4,379.3c0,4.8-0.1,9.5,0,14.1
		c0,7.6,0.5,15.2,1.6,22.7c0.8,5.6,2.6,11,5.2,16.1c3.2,6.4,8.8,11.2,15.7,13.2c6.3,1.8,12.9,2.2,19.4,1.2c5.2-0.8,10.2-2.3,15-4.5
		c8-3.5,15.7-7.6,22.1-13.5c7.1-6.6,13.6-13.8,19.5-21.5c2.8-3.5,5.1-7.3,6.8-11.4c0.3-0.7,0.8-1.4,0.4-2.2l-0.7,0.3
		c-13.6,6.5-27.8,10.1-43,9.8c-8.6,0-17.2-1.3-25.4-3.7c-10.6-3.2-20.4-8-28.8-15.4c-1.7-1.5-3.4-2.9-5.2-4.1
		C244.2,379.7,243.3,379.3,242.4,379.3z"/>
</g>
<g id="Layer_3">
	<g>
		<g>
			<path class="st1" d="M173.9,185c-1,6.6-1.9,13.3-2.5,19.8c-2.6,0.9-5.1,1.9-7.7,2.9c1.8-21.1,5.6-42.5,11.3-64.1
				c3.5-1,7-2,10.5-2.9c9.1,17.4,18,34.9,26.6,52.6c-2.7,0.6-5.3,1.2-8,1.8c-2.8-5.5-5.7-10.9-8.6-16.4
				C188.3,180.6,181.1,182.7,173.9,185z M193.1,173.4c-2.7-5-5.3-10-8-14.9c-1.8-3.4-3.2-6.5-4.5-9.6c-0.1,0-0.1,0-0.2,0.1
				c-0.6,3.7-1.3,7.5-2.1,11.4c-1.4,6.2-2.7,12.3-3.8,18.5C180.7,176.8,186.9,175,193.1,173.4z"/>
			<path class="st1" d="M218.8,182.8c3.6,1.4,8.6,2.3,13.9,1.5c7.7-1.1,12.2-5.5,12.3-11.3c0.1-5.4-3.1-8.2-11.4-10.2
				c-10.1-2-16.8-5.7-17-13.9c-0.3-9,8.5-17.4,21.7-18.9c6.9-0.7,11.8,0.3,14.6,1.5c-1,2.1-1.9,4.2-2.9,6.3
				c-2.1-0.9-6.4-2.2-12.4-1.6c-9.1,1-12.6,6.4-12.6,10.4c0,5.5,4,7.4,12.6,9.5c10.6,2.6,15.5,7.1,15.2,15.5
				c-0.4,9-6.9,16.9-20.4,18.8c-5.5,0.8-11.7,0.3-15-1.2C217.8,187.2,218.3,185,218.8,182.8z"/>
			<path class="st1" d="M276,128.9c-2.9,19.3-4.9,38.6-6.1,57.8c-2.4,0-4.9,0.1-7.3,0.2c0.7-19.2,2.4-38.5,4.8-57.9
				C270.3,128.9,273.2,128.9,276,128.9z"/>
			<path class="st1" d="M299.4,129.5c-4,19.1-7.2,38.3-9.5,57.4c-2.4-0.1-4.8-0.2-7.2-0.2c1.9-19.1,4.6-38.3,8.3-57.5
				C293.7,129.2,296.5,129.4,299.4,129.5z"/>
			<path class="st1" d="M357.3,195.9c-2.9,0.6-8.2,0.6-14.6-0.9c-14.6-3.4-24.3-14.9-20-33.5c4.1-17.7,21.6-27.9,41-23.1
				c7.7,1.9,11.9,4.8,13.5,6.4c-1.5,1.7-2.9,3.4-4.3,5.1c-2.4-2.1-6.2-4.3-11.3-5.5c-14.4-3.6-27,3.3-30.9,18.1
				c-3.6,13.8,2.2,23.8,15.1,26.8c4.2,1,8.7,1.2,12,0.6C357.6,191.9,357.4,193.9,357.3,195.9z"/>
			<path class="st1" d="M421.5,191.2c-10.6,17.2-25.1,21.7-37.4,16.8c-12.7-5-18.4-19-12-35.5c6.8-17.2,24.1-24.8,39.8-18.3
				C428,160.9,430.6,176.4,421.5,191.2z M379.8,174.8c-4.9,11.5-2.9,23.7,7.1,27.7c10.1,4,20.6-3,27.3-14.5
				c5.8-10,6.7-23.4-5.7-28.5C396.2,154.5,384.8,163,379.8,174.8z"/>
			<path class="st1" d="M453.1,175.6c-11.7,15.9-22.7,32.1-32.8,48.7c-1.9-1.1-3.9-2.2-5.9-3.3c9.7-16.8,20.3-33.3,31.7-49.4
				C448.5,173,450.8,174.3,453.1,175.6z"/>
			<path class="st1" d="M430.3,230.4c10.7-16.2,22.3-32.1,34.7-47.5c2.4,1.6,4.9,3.1,7.3,4.8c-1,11.3-2.3,22.6-4,33.7
				c-1.2,7.8-2.8,14.4-4.8,20.5c0.1,0,0.1,0,0.2,0c4.6-6.3,9.2-11.8,15.5-18.5c5.6-6,11.3-12,17.2-17.8c1.9,1.6,3.8,3.2,5.7,4.8
				c-14.3,13.7-27.9,27.9-40.7,42.7c-1.7-1.4-3.4-2.8-5.1-4.2c2.1-11,3.9-22.1,5.3-33.3c0.9-7.4,2-14.8,3.5-21.5
				c-0.1,0-0.2-0.1-0.3-0.1c-4.3,6-8.6,11.7-14.5,19.5c-5,6.7-9.9,13.5-14.7,20.3C433.8,232.6,432.1,231.5,430.3,230.4z"/>
		</g>
	</g>
</g>
<g id="Layer_4">
	<text transform="matrix(0.8756 -0.483 0.483 0.8756 483.055 378.4579)" class="st3 st4 st5">$</text>
</g>
<g id="Layer_5">
	<text transform="matrix(0.7734 0.6339 -0.6339 0.7734 94.6153 293.169)" class="st3 st4 st6"> €</text>
</g>
<g id="Layer_6">
</g>
</svg>
